Coordinates
version=1
nRows=11
nColumns=36
inDegrees=yes

Units are S.I. units (second, meters, Newtons, ...)
If the header above contains a line with 'inDegrees', this indicates whether rotational values are in degrees (yes) or radians (no).

endheader
time	pelvis_tilt	pelvis_list	pelvis_rotation	pelvis_tx	pelvis_ty	pelvis_tz	hip_flexion_r	hip_adduction_r	hip_rotation_r	knee_angle_r	knee_angle_r_beta	ankle_angle_r	subtalar_angle_r	mtp_angle_r	hip_flexion_l	hip_adduction_l	hip_rotation_l	knee_angle_l	knee_angle_l_beta	ankle_angle_l	subtalar_angle_l	mtp_angle_l	lumbar_extension	lumbar_bending	lumbar_rotation	arm_flex_r	arm_add_r	arm_rot_r	elbow_flex_r	pro_sup_r	arm_flex_l	arm_add_l	arm_rot_l	elbow_flex_l	pro_sup_l
      3.46666670	     -6.04283961	      1.61033301	      4.50956762	      1.15500396	      0.94605285	     -0.07025853	      6.60954391	      1.43171012	      5.81052548	      0.98303423	      0.01715718	      0.89727561	    -11.56360092	     -7.49999964	      7.98103671	      4.17716476	      5.99196104	      6.28154916	      0.10963372	      2.21399968	     -7.78711637	     -7.49999964	      3.03977047	      2.14332079	      1.13535140	     47.15805784	      3.42025887	     72.64405485	    114.41130234	     77.71442019	     40.61820186	     10.50160669	     68.37640846	    114.48634167	     63.52233983
      3.48333330	     -5.94888286	      1.55168691	      4.83100649	      1.16027560	      0.94407325	     -0.07287791	      6.34087915	      1.42953446	      5.50551369	      0.95141066	      0.01660525	      0.75715646	    -11.61350439	     -7.49999965	      7.65405562	      4.17211705	      6.08506822	      5.98145852	      0.10439615	      2.22763999	     -7.45373040	     -7.49999965	      3.17227153	      2.17355250	      0.89579087	     47.18143148	      3.43608962	     72.77676552	    114.41828980	     77.74210826	     40.70241801	     10.53437280	     68.51999541	    114.25288259	     63.51211505
      3.50000000	     -5.83771383	      1.51127853	      4.97143805	      1.15934481	      0.94417931	     -0.07284788	      6.11999454	      1.43321570	      5.36696511	      0.95494124	      0.01666687	      0.74275878	    -11.65445564	     -7.49999978	      7.27127222	      4.15810629	      6.08171800	      5.58733002	      0.09751731	      2.34602771	     -7.08431338	     -7.49999978	      3.19849572	      2.22707313	      0.66740208	     47.09636441	      3.55823636	     73.15766049	    114.46433043	     75.33800146	     40.44934526	     10.50203255	     68.49946406	    114.26822974	     63.09336297
      3.51666670	     -5.74306209	      1.43736962	      5.08630804	      1.15994993	      0.94225962	     -0.07313542	      5.92678618	      1.48366436	      5.25740050	      0.95206514	      0.01661667	      0.72744097	    -11.79985974	     -7.49999983	      6.92201571	      4.11810554	      6.36526853	      5.23431327	      0.09135600	      2.33813372	     -7.22445248	     -7.49999983	      3.18788419	      2.28937907	      0.38726569	     47.12437530	      3.75119570	     73.43879901	    114.58793119	     73.90770831	     40.22669290	     10.54880281	     68.48702633	    114.48294372	     62.96320304
      3.53333330	     -5.67853509	      1.39001353	      5.15035942	      1.15906928	      0.94263973	     -0.07310498	      5.82266951	      1.50409697	      5.15703072	      0.96738649	      0.01688408	      0.68300924	    -11.94826268	     -7.49999985	      6.62700291	      4.08429958	      6.45397767	      4.90537238	      0.08561490	      2.35984302	     -7.10932391	     -7.49999985	      3.13296234	      2.29443839	      0.40038085	     47.21268648	      3.88196038	     73.51569600	    114.65927456	     74.55780520	     40.17353312	     10.72892570	     68.65611090	    114.34280990	     63.10534398
      3.55000000	     -5.74026650	      1.35946070	      5.13482873	      1.15513852	      0.94451136	     -0.07017055	      5.94925080	      1.55834205	      5.14623791	      0.94376646	      0.01647183	      0.74813620	    -11.95920280	     -7.49999985	      6.65321662	      4.03856030	      6.52596070	      4.78257285	      0.08347164	      2.36513848	     -7.05833325	     -7.49999985	      3.03534496	      2.26565183	      0.47529547	     47.33174190	      3.92677708	     73.48811327	    114.62537384	     74.59153484	     40.22170580	     10.69347387	     68.66775023	    114.27943222	     63.10890162
      3.56666670	     -5.64311527	      1.33924620	      5.04288213	      1.15905443	      0.94259002	     -0.07248480	      5.84754087	      1.60443806	      5.18626581	      0.95340733	      0.01664010	      0.84461330	    -11.82512064	     -7.49999985	      6.35949576	      3.99611037	      6.68421628	      4.42684130	      0.07726296	      2.26177149	     -6.83827827	     -7.49999985	      2.88928886	      2.25124267	      0.53312542	     47.59280853	      4.01282422	     73.47139736	    114.25407746	     74.97605715	     40.32159151	     10.83320209	     68.81260062	    113.93895560	     63.13502237
      3.58333330	     -5.70961570	      1.31793991	      4.91321813	      1.15513703	      0.94467484	     -0.07012531	      5.99407010	      1.69188391	      5.17419335	      0.92450862	      0.01613572	      0.88923744	    -11.82551192	     -7.49999985	      6.44304683	      3.95451322	      6.76684745	      4.33467048	      0.07565427	      2.24507853	     -6.78877585	     -7.49999985	      2.73615035	      2.16572665	      0.56595844	     47.68056697	      4.00670280	     73.42432444	    114.21464616	     74.99623273	     40.33407075	     10.78959074	     68.78995252	    113.91761463	     63.13347508
      3.60000000	     -5.72481876	      1.30065727	      4.77330272	      1.15454702	      0.94463386	     -0.07011104	      6.15280689	      1.77753271	      5.33441302	      1.02603941	      0.01790777	      1.06587552	    -11.80572178	     -7.49999986	      6.38072174	      3.89273753	      7.05539111	      4.10225132	      0.07159779	      1.98266120	     -6.79732984	     -7.49999986	      2.59842688	      2.12773781	      0.46376081	     48.08803520	      4.18022569	     73.43017257	    113.81853228	     74.52134740	     40.30816231	     10.66843183	     68.65600544	    113.85893804	     62.78386173
      3.61666670	     -5.78105717	      1.36556603	      4.72800725	      1.15519565	      0.94463775	     -0.07012555	      6.32611015	      1.76365002	      5.45676549	      1.08627392	      0.01895906	      1.13147775	    -12.03709353	     -7.49999986	      6.43701343	      3.92675507	      7.21312156	      4.04656143	      0.07062582	      1.98106839	     -6.61896492	     -7.49999986	      2.45825169	      1.94340379	      0.31224773	     47.97551409	      4.41747938	     73.33704287	    113.60249541	     75.45548306	     40.11126654	     10.56044783	     68.61314844	    113.84873172	     62.74539468
      3.63333330	     -5.86891729	      1.34063610	      4.53651338	      1.15020033	      0.94408657	     -0.06732559	      6.65023145	      1.90180585	      5.51400040	      1.19585904	      0.02087168	      1.26499427	    -11.99297977	     -7.49999986	      6.62610355	      3.80170238	      7.22796700	      4.03503189	      0.07042459	      1.90703868	     -6.56536343	     -7.49999986	      2.31000244	      1.78899018	      0.30414499	     48.39612148	      4.36367465	     73.04923396	    113.42142305	     75.52774577	     40.41874885	     10.47415870	     68.46076017	    113.85307751	     62.74043303
